<?xml version="1.0" encoding="UTF-8"?>
<svg id="Ebene_1" data-name="Ebene 1" xmlns="http://www.w3.org/2000/svg" viewBox="0 0 32 32">
  <g id="Pfad_105-2" data-name="Pfad 105-2">
    <path d="M16,29.324c7.359,0,13.324-5.965,13.324-13.324S23.359,2.676,16,2.676,2.676,8.641,2.676,16s5.965,13.324,13.324,13.324Z" style="fill: none; stroke-width: 0px;"/>
    <path d="M16,27.104c6.122,0,11.104-4.981,11.104-11.104s-4.981-11.104-11.104-11.104S4.896,9.878,4.896,16s4.981,11.104,11.104,11.104M16,29.324c-7.359,0-13.324-5.965-13.324-13.324S8.641,2.676,16,2.676s13.324,5.965,13.324,13.324-5.965,13.324-13.324,13.324Z" style="stroke-width: 0px;"/>
  </g>
  <path d="M16.111,3.054c-.135-.108-.16,25.539,0,25.592,7.172,0,12.985-5.729,12.985-12.796S23.282,3.054,16.111,3.054Z" style="stroke-width: 0px;"/>
</svg>