<?xml version="1.0" encoding="UTF-8"?>
<svg id="Ebene_1" data-name="Ebene 1" xmlns="http://www.w3.org/2000/svg" viewBox="0 0 32 32">
  <path d="M19.791,19.173l.431,1.099c.201.515.782.766,1.296.565.515-.201.768-.782.565-1.296l-5.8-14.776c-.15-.383-.52-.635-.931-.635h-1.169c-.411,0-.781.252-.931.635l-5.027,12.815c-.109.145-.181.314-.198.505l-2.959,7.542c-.121.308-.082.655.105.929.186.273.496.437.826.437h.093c.526,0,.915-.406.951-.922l2.706-6.897h10.042ZM14.769,6.378l4.238,10.795h-8.472l4.234-10.795Z" style="stroke-width: 0px;"/>
  <path d="M26.707,19.147c-.391-.391-1.023-.391-1.414,0l-6.308,6.31-2.801-2.802c-.391-.391-1.023-.391-1.414,0s-.391,1.023,0,1.414l3.508,3.509c.188.188.441.293.707.293s.52-.105.707-.293l7.015-7.017c.391-.391.391-1.023,0-1.414Z" style="stroke-width: 0px;"/>
</svg>