<?xml version="1.0" encoding="UTF-8"?>
<svg id="Ebene_1" data-name="Ebene 1" xmlns="http://www.w3.org/2000/svg" viewBox="0 0 32 32">
  <path d="M20.21,19.523l.479,1.22c.223.571.869.85,1.439.628.571-.223.852-.869.628-1.439L16.315,3.525c-.166-.425-.577-.705-1.033-.705h-1.298c-.457,0-.867.28-1.034.705l-5.582,14.229c-.122.161-.201.349-.22.561l-3.285,8.374c-.134.342-.091.728.117,1.031.207.304.55.485.917.485h.103c.584,0,1.016-.451,1.056-1.024l3.004-7.659h11.15ZM14.633,5.316l4.705,11.986h-9.407l4.702-11.986Z" style="stroke-width: 0px;"/>
  <path d="M27.889,19.494c-.434-.434-1.136-.434-1.57,0l-7.004,7.006-3.11-3.111c-.434-.434-1.136-.434-1.57,0s-.434,1.136,0,1.57l3.895,3.896c.208.208.49.325.785.325s.577-.117.785-.325l7.789-7.791c.434-.434.434-1.136,0-1.57Z" style="stroke-width: 0px;"/>
</svg>