<?xml version="1.0" encoding="UTF-8"?>
<svg id="Ebene_1" data-name="Ebene 1" xmlns="http://www.w3.org/2000/svg" viewBox="0 0 32 32">
  <g id="Pfad_113" data-name="Pfad 113">
    <path d="M11.257,13.675v-5.714h4.913c.454-.001.907.039,1.354.12.407.07.798.215,1.153.427.338.209.614.504.802.855.216.435.32.917.301,1.402.076.843-.26,1.67-.903,2.221-.671.478-1.483.718-2.306.684l-5.313.004ZM6.005,3.787v24.428h11.564c1.055.002,2.107-.136,3.126-.411.971-.254,1.888-.683,2.706-1.266.795-.575,1.442-1.332,1.888-2.206.49-.995.731-2.093.703-3.201.041-1.385-.338-2.751-1.086-3.917-.789-1.129-1.957-1.937-3.292-2.275.974-.444,1.81-1.141,2.423-2.019.574-.922.859-1.994.818-3.079.029-.987-.16-1.968-.555-2.874-.345-.748-.881-1.391-1.554-1.864-.727-.493-1.545-.836-2.406-1.009-1.022-.214-2.065-.317-3.109-.308H6.005ZM11.257,24.041v-6.705h5.715c.978-.048,1.943.235,2.74.804.752.68,1.136,1.677,1.036,2.686.02.542-.089,1.081-.318,1.573-.196.393-.49.728-.853.975-.376.248-.796.422-1.237.513-.483.104-.976.156-1.47.154h-5.614Z" style="stroke-width: 0px;"/>
  </g>
</svg>