<?xml version="1.0" encoding="UTF-8"?>
<svg id="Ebene_1" data-name="Ebene 1" xmlns="http://www.w3.org/2000/svg" viewBox="0 0 32 32">
  <g id="Pfad_113" data-name="Pfad 113">
    <path d="M11.729,13.906v-5.146h4.425c.409-.001.817.035,1.219.108.367.063.719.193,1.038.385.304.189.553.454.722.77.195.392.288.826.271,1.263.069.759-.234,1.504-.813,2-.605.43-1.335.647-2.077.616l-4.785.004ZM6.999,5.001v22h10.415c.951.002,1.897-.123,2.815-.37.875-.229,1.701-.615,2.437-1.14.716-.518,1.299-1.199,1.7-1.987.441-.896.658-1.885.633-2.883.037-1.248-.304-2.477-.978-3.528-.71-1.017-1.763-1.744-2.965-2.049.877-.4,1.63-1.028,2.182-1.818.517-.83.774-1.796.737-2.773.027-.889-.144-1.773-.5-2.588-.31-.673-.793-1.253-1.4-1.679-.655-.444-1.392-.753-2.167-.909-.921-.193-1.859-.286-2.8-.277H6.999ZM11.729,23.242v-6.039h5.147c.881-.043,1.75.212,2.468.724.677.613,1.023,1.51.933,2.419.018.488-.08.974-.286,1.417-.177.354-.441.656-.768.878-.339.223-.717.38-1.114.462-.435.094-.879.141-1.324.139h-5.056Z" style="stroke-width: 0px;"/>
  </g>
</svg>