<?xml version="1.0" encoding="UTF-8"?>
<svg id="Ebene_1" data-name="Ebene 1" xmlns="http://www.w3.org/2000/svg" viewBox="0 0 32 32">
  <path d="M25,5H7c-1.105,0-2,.895-2,2v18c0,1.105.895,2,2,2h18c1.105,0,2-.895,2-2V7c0-1.105-.895-2-2-2ZM17.119,12.357v8c0,.042-.019.078-.024.119.005.041.024.077.024.119,0,.617.502,1.119,1.119,1.119.553,0,1,.448,1,1s-.447,1-1,1c-.817,0-1.562-.316-2.119-.832-.557.516-1.302.832-2.119.832-.553,0-1-.448-1-1s.447-1,1-1c.617,0,1.119-.502,1.119-1.119,0-.042.019-.078.024-.119-.005-.041-.024-.077-.024-.119v-8c0-.042.019-.078.024-.119-.005-.041-.024-.077-.024-.119,0-.617-.502-1.119-1.119-1.119-.553,0-1-.448-1-1s.447-1,1-1c.817,0,1.562.316,2.119.833.557-.517,1.302-.833,2.119-.833.553,0,1,.448,1,1s-.447,1-1,1c-.617,0-1.119.502-1.119,1.119,0,.042-.019.078-.024.119.005.041.024.077.024.119Z" style="stroke-width: 0px;"/>
</svg>