<?xml version="1.0" encoding="UTF-8"?>
<svg id="Ebene_1" data-name="Ebene 1" xmlns="http://www.w3.org/2000/svg" viewBox="0 0 32 32">
  <path d="M25.993,3.786H6.007c-1.226,0-2.221.994-2.221,2.221v19.986c0,1.226.994,2.221,2.221,2.221h19.986c1.226,0,2.221-.994,2.221-2.221V6.007c0-1.226-.994-2.221-2.221-2.221ZM20.441,22.233c-.094,1.54-1.378,2.669-2.837,2.589l-3.27.002c-.047.003-.093.004-.14.004-1.353,0-2.545-1.103-2.634-2.525l-.002-3.031c0-.613.497-1.11,1.11-1.11s1.11.497,1.11,1.11v2.961c.013.188.229.383.494.371l3.392-.002c.307.013.541-.182.557-.439l-.002-2.892c0-.613.497-1.11,1.11-1.11s1.11.497,1.11,1.11v2.961ZM14.89,19.331v-6.662c0-.613.497-1.11,1.11-1.11s1.11.497,1.11,1.11v6.662c0,.613-.497,1.11-1.11,1.11s-1.11-.497-1.11-1.11ZM19.331,13.779c-.614,0-1.11-.497-1.11-1.11v-2.961c-.013-.188-.24-.387-.493-.371l-3.393.002c-.309-.019-.541.182-.557.439l.002,2.892c0,.613-.497,1.11-1.11,1.11s-1.11-.497-1.11-1.11v-2.961c.094-1.539,1.328-2.665,2.838-2.589l3.269-.002c1.389-.093,2.682,1.05,2.774,2.521l.002,3.031c0,.613-.497,1.11-1.11,1.11Z" style="stroke-width: 0px;"/>
</svg>