<?xml version="1.0" encoding="UTF-8"?>
<svg id="Ebene_1" data-name="Ebene 1" xmlns="http://www.w3.org/2000/svg" viewBox="0 0 32 32">
  <g id="Gruppe_54" data-name="Gruppe 54">
    <g id="droplet-2">
      <g id="Pfad_58-2" data-name="Pfad 58-2">
        <path d="M7,18.467c0-5.851,9-13.467,9-13.467,0,0,9,7.6,9,13.467,0,5.44-4.613,8.533-9,8.533s-9-3.093-9-8.533Z" style="fill: none; stroke: #000; stroke-linecap: round; stroke-linejoin: round; stroke-width: 2px;"/>
      </g>
    </g>
    <g id="Differenzmenge_3" data-name="Differenzmenge 3">
      <path d="M15.923,27c-.14,0-.282,0-.423-.011V5.395c.261-.249.416-.389.423-.395l.009.007c1.513,1.406,2.924,2.918,4.221,4.526,1.111,1.352,2.085,2.81,2.909,4.354.794,1.401,1.247,2.97,1.322,4.579.063,2.392-.916,4.694-2.684,6.307-1.587,1.426-3.643,2.219-5.777,2.227Z" style="stroke-width: 0px;"/>
    </g>
  </g>
</svg>