<?xml version="1.0" encoding="UTF-8"?>
<svg id="Ebene_1" data-name="Ebene 1" xmlns="http://www.w3.org/2000/svg" viewBox="0 0 32 32">
  <path d="M25.993,3.786H6.007c-1.226,0-2.221.994-2.221,2.221v19.986c0,1.226.994,2.221,2.221,2.221h19.986c1.226,0,2.221-.994,2.221-2.221V6.007c0-1.226-.994-2.221-2.221-2.221ZM17.243,11.955v8.883c0,.047-.021.087-.027.132.006.045.027.085.027.132,0,.685.557,1.242,1.243,1.242.614,0,1.11.497,1.11,1.11s-.497,1.11-1.11,1.11c-.908,0-1.735-.351-2.353-.924-.618.573-1.445.924-2.353.924-.614,0-1.11-.497-1.11-1.11s.497-1.11,1.11-1.11c.685,0,1.243-.557,1.243-1.242,0-.047.021-.087.027-.132-.006-.045-.027-.085-.027-.132v-8.883c0-.047.021-.087.027-.132-.006-.045-.027-.085-.027-.132,0-.685-.557-1.243-1.243-1.243-.614,0-1.11-.497-1.11-1.11s.497-1.11,1.11-1.11c.908,0,1.735.351,2.353.924.618-.574,1.445-.924,2.353-.924.614,0,1.11.497,1.11,1.11s-.497,1.11-1.11,1.11c-.685,0-1.243.557-1.243,1.243,0,.047-.021.087-.027.132.006.045.027.085.027.132Z" style="stroke-width: 0px;"/>
</svg>