<?xml version="1.0" encoding="UTF-8"?>
<svg id="Ebene_1" data-name="Ebene 1" xmlns="http://www.w3.org/2000/svg" viewBox="0 0 32 32">
  <g id="Gruppe_49" data-name="Gruppe 49">
    <g id="Pfad_105" data-name="Pfad 105">
      <path d="M16,28c6.627,0,12-5.373,12-12s-5.373-12-12-12-12,5.373-12,12,5.373,12,12,12Z" style="fill: none; stroke-width: 0px;"/>
      <path d="M16,26c5.514,0,10-4.486,10-10s-4.486-10-10-10-10,4.486-10,10,4.486,10,10,10M16,28c-6.627,0-12-5.373-12-12s5.373-12,12-12,12,5.373,12,12-5.373,12-12,12Z" style="stroke-width: 0px;"/>
    </g>
    <g id="Pfad_106" data-name="Pfad 106">
      <path d="M16,24c4.418,0,8-3.582,8-8s-3.582-8-8-8c-.083-.07-.1,15.967,0,16Z" style="stroke-width: 0px;"/>
    </g>
  </g>
</svg>