<?xml version="1.0" encoding="UTF-8"?>
<svg id="Ebene_1" data-name="Ebene 1" xmlns="http://www.w3.org/2000/svg" viewBox="0 0 32 32">
  <g id="Gruppe_49" data-name="Gruppe 49">
    <g id="Pfad_105" data-name="Pfad 105">
      <path d="M16,29.324c7.359,0,13.324-5.965,13.324-13.324S23.359,2.676,16,2.676,2.676,8.641,2.676,16s5.965,13.324,13.324,13.324Z" style="fill: none; stroke-width: 0px;"/>
      <path d="M16,27.104c6.122,0,11.104-4.981,11.104-11.104s-4.981-11.104-11.104-11.104-11.104,4.981-11.104,11.104,4.981,11.104,11.104,11.104M16,29.324c-7.359,0-13.324-5.965-13.324-13.324S8.641,2.676,16,2.676s13.324,5.965,13.324,13.324-5.965,13.324-13.324,13.324Z" style="stroke-width: 0px;"/>
    </g>
    <g id="Pfad_106" data-name="Pfad 106">
      <path d="M16,24.883c4.906,0,8.883-3.977,8.883-8.883s-3.977-8.883-8.883-8.883c-.092-.078-.111,17.729,0,17.766Z" style="stroke-width: 0px;"/>
    </g>
  </g>
</svg>