<?xml version="1.0" encoding="UTF-8"?>
<svg id="Ebene_1" data-name="Ebene 1" xmlns="http://www.w3.org/2000/svg" viewBox="0 0 32 32">
  <path d="M25,5H7c-1.105,0-2,.895-2,2v18c0,1.105.895,2,2,2h18c1.105,0,2-.895,2-2V7c0-1.105-.895-2-2-2ZM20,21.613c-.085,1.387-1.241,2.404-2.555,2.332h-2.945c-.042.004-.084.005-.126.005-1.219,0-2.292-.994-2.372-2.274l-.002-2.729c0-.552.447-1,1-1s1,.448,1,1v2.667c.012.169.206.345.445.334h3.055c.276.01.487-.165.502-.397l-.002-2.604c0-.552.447-1,1-1s1,.448,1,1v2.667ZM15,19v-6c0-.552.447-1,1-1s1,.448,1,1v6c0,.552-.447,1-1,1s-1-.448-1-1ZM19,14c-.553,0-1-.448-1-1v-2.667c-.012-.169-.216-.349-.444-.334h-3.056c-.278-.016-.487.165-.502.397l.002,2.604c0,.552-.447,1-1,1s-1-.448-1-1v-2.667c.085-1.386,1.196-2.4,2.556-2.332h2.944c1.251-.085,2.415.944,2.498,2.269l.002,2.729c0,.552-.447,1-1,1Z" style="stroke-width: 0px;"/>
</svg>