<?xml version="1.0" encoding="UTF-8"?>
<svg id="Ebene_1" data-name="Ebene 1" xmlns="http://www.w3.org/2000/svg" viewBox="0 0 32 32">
  <path d="M16,5.833c.613,0,1.11-.497,1.11-1.11v-2.047c0-.614-.497-1.11-1.11-1.11s-1.11.497-1.11,1.11v2.047c0,.614.497,1.11,1.11,1.11Z" style="stroke-width: 0px;"/>
  <path d="M16,26.167c-.613,0-1.11.497-1.11,1.11v2.047c0,.614.497,1.11,1.11,1.11s1.11-.497,1.11-1.11v-2.047c0-.614-.497-1.11-1.11-1.11Z" style="stroke-width: 0px;"/>
  <path d="M29.324,14.89h-2.047c-.614,0-1.11.497-1.11,1.11s.497,1.11,1.11,1.11h2.047c.614,0,1.11-.497,1.11-1.11s-.497-1.11-1.11-1.11Z" style="stroke-width: 0px;"/>
  <path d="M5.834,16c0-.614-.497-1.11-1.11-1.11h-2.048c-.613,0-1.11.497-1.11,1.11s.497,1.11,1.11,1.11h2.048c.613,0,1.11-.497,1.11-1.11Z" style="stroke-width: 0px;"/>
  <path d="M23.977,9.133c.284,0,.568-.108.785-.325l1.444-1.444c.434-.434.434-1.136,0-1.57s-1.136-.434-1.57,0l-1.444,1.444c-.434.434-.434,1.136,0,1.57.217.217.501.325.785.325Z" style="stroke-width: 0px;"/>
  <path d="M7.233,23.198l-1.443,1.443c-.434.434-.434,1.136,0,1.57.217.217.501.325.785.325s.568-.108.785-.325l1.443-1.443c.434-.434.434-1.136,0-1.57s-1.136-.434-1.57,0Z" style="stroke-width: 0px;"/>
  <path d="M24.762,23.192c-.434-.434-1.136-.434-1.57,0s-.434,1.136,0,1.57l1.444,1.444c.217.217.501.325.785.325s.568-.108.785-.325c.434-.434.434-1.136,0-1.57l-1.444-1.444Z" style="stroke-width: 0px;"/>
  <path d="M7.233,8.802c.217.217.501.325.785.325s.568-.108.785-.325c.434-.434.434-1.136,0-1.57l-1.443-1.443c-.434-.434-1.136-.434-1.57,0s-.434,1.136,0,1.57l1.443,1.443Z" style="stroke-width: 0px;"/>
  <path d="M16,7.707c-4.572,0-8.292,3.72-8.292,8.293,0,4.572,3.72,8.291,8.292,8.291s8.292-3.719,8.292-8.292-3.719-8.292-8.292-8.292ZM16,22.07c-3.347,0-6.071-2.724-6.071-6.071,0-3.347,2.723-6.071,6.071-6.071s6.071,2.724,6.071,6.071-2.724,6.071-6.071,6.071Z" style="stroke-width: 0px;"/>
</svg>