<?xml version="1.0" encoding="UTF-8"?>
<svg id="Ebene_1" data-name="Ebene 1" xmlns="http://www.w3.org/2000/svg" viewBox="0 0 32 32">
  <path d="M12.067,10.123c.217.217.501.325.785.325s.568-.108.785-.325c.434-.434.434-1.136,0-1.57l-4.441-4.441c-.434-.434-1.136-.434-1.57,0l-4.441,4.441c-.434.434-.434,1.136,0,1.57s1.136.434,1.57,0l2.546-2.546v16.846l-2.546-2.546c-.434-.434-1.136-.434-1.57,0s-.434,1.136,0,1.57l4.441,4.441c.217.217.501.325.785.325s.568-.108.785-.325l4.441-4.441c.434-.434.434-1.136,0-1.57s-1.136-.434-1.57,0l-2.546,2.546V7.577l2.546,2.546Z" style="stroke-width: 0px;"/>
  <path d="M16.927,8.228h11.104c.614,0,1.11-.497,1.11-1.11s-.497-1.11-1.11-1.11h-11.104c-.613,0-1.11.497-1.11,1.11s.497,1.11,1.11,1.11Z" style="stroke-width: 0px;"/>
  <path d="M28.031,14.89h-11.104c-.613,0-1.11.497-1.11,1.11s.497,1.11,1.11,1.11h11.104c.614,0,1.11-.497,1.11-1.11s-.497-1.11-1.11-1.11Z" style="stroke-width: 0px;"/>
  <path d="M28.031,23.772h-11.104c-.613,0-1.11.497-1.11,1.11s.497,1.11,1.11,1.11h11.104c.614,0,1.11-.497,1.11-1.11s-.497-1.11-1.11-1.11Z" style="stroke-width: 0px;"/>
</svg>