<?xml version="1.0" encoding="UTF-8"?>
<svg id="Ebene_1" data-name="Ebene 1" xmlns="http://www.w3.org/2000/svg" viewBox="0 0 32 32">
  <path d="M25.917,23.594c.742-1.398,1.186-3.02,1.186-4.855,0-1.5-.481-3.07-1.213-4.616-.04-.201-.121-.385-.254-.531-2.783-5.416-8.599-10.382-8.921-10.653-.414-.35-1.019-.348-1.433,0-.424.359-10.386,8.87-10.386,15.801,0,6.626,5.646,10.585,11.104,10.585,3.876,0,7.835-2.004,9.811-5.534.04-.064.08-.124.106-.196ZM22.899,13.224h-5.789v-2.221h4.238c.554.717,1.078,1.463,1.551,2.221ZM17.11,15.445h6.972c.327.751.572,1.497.697,2.221h-7.669v-2.221ZM17.11,19.886h7.694c-.102.806-.313,1.545-.609,2.221h-7.085v-2.221ZM19.487,8.782h-2.376v-2.466c.693.672,1.521,1.515,2.376,2.466ZM7.117,18.739c0-4.279,4.988-9.716,7.772-12.419v20.711c-3.947-.457-7.772-3.326-7.772-8.292ZM17.11,27.031v-2.703h5.611c-1.472,1.548-3.523,2.462-5.611,2.703Z" style="stroke-width: 0px;"/>
</svg>