<?xml version="1.0" encoding="UTF-8"?>
<svg id="Ebene_1" data-name="Ebene 1" xmlns="http://www.w3.org/2000/svg" viewBox="0 0 32 32">
  <g id="Gruppe_51" data-name="Gruppe 51">
    <g id="Differenzmenge_4" data-name="Differenzmenge 4">
      <path d="M15.127,28.214H4.659c-.492-.012-.883-.419-.873-.912V5.809c-.011-.493.38-.901.873-.913h10.468c.493.012.883.42.873.913v9.636l-10.589,11.07h10.589v.786c.011.493-.38.901-.873.913Z" style="stroke-width: 0px;"/>
    </g>
    <g id="Pfad_63" data-name="Pfad 63">
      <path d="M15.999,15.445v11.659h11.669l-11.669-11.659Z" style="stroke-width: 0px;"/>
    </g>
    <g id="Rechteck_28" data-name="Rechteck 28">
      <rect x="3.786" y="3.786" width="24.428" height="24.428" rx="2.221" ry="2.221" style="fill: none; stroke-width: 0px;"/>
      <path d="M25.993,28.214H6.007c-1.225,0-2.221-.996-2.221-2.221V6.007c0-1.224.996-2.221,2.221-2.221h19.986c1.224,0,2.221.996,2.221,2.221v19.986c0,1.224-.996,2.221-2.221,2.221ZM6.007,6.007h-.002l.002,19.986h19.986V6.007H6.007Z" style="stroke-width: 0px;"/>
    </g>
  </g>
</svg>