<?xml version="1.0" encoding="UTF-8"?>
<svg id="Ebene_1" data-name="Ebene 1" xmlns="http://www.w3.org/2000/svg" viewBox="0 0 32 32">
  <path d="M10.068,8.649c-.613,0-1.11.497-1.11,1.11s.497,1.11,1.11,1.11h8.883c.614,0,1.11-.497,1.11-1.11s-.497-1.11-1.11-1.11h-8.883Z" style="stroke-width: 0px;"/>
  <path d="M12.288,11.98h-2.221c-.613,0-1.11.497-1.11,1.11s.497,1.11,1.11,1.11h2.221c.613,0,1.11-.497,1.11-1.11s-.497-1.11-1.11-1.11Z" style="stroke-width: 0px;"/>
  <path d="M12.288,15.311h-2.221c-.613,0-1.11.497-1.11,1.11s.497,1.11,1.11,1.11h2.221c.613,0,1.11-.497,1.11-1.11s-.497-1.11-1.11-1.11Z" style="stroke-width: 0px;"/>
  <path d="M25.597,19.282l-4.574-.173-.524-3.699c-.092-.646-.43-1.217-.953-1.609-.522-.391-1.165-.556-1.811-.464-.646.092-1.217.432-1.609.953-.391.523-.556,1.166-.464,1.811l.786,5.498-.221.031c-1.333.191-2.262,1.43-2.073,2.763l.272,1.912c.163,1.144.717,2.21,1.56,3l1.615,1.517c.215.202.487.301.76.301.296,0,.591-.117.809-.35.421-.447.398-1.149-.049-1.569l-1.616-1.518c-.476-.447-.789-1.049-.881-1.695l-.271-1.911c-.017-.121.067-.234.188-.252l.218-.031.125.879c.079.554.554.954,1.098.954.052,0,.104-.003.157-.011.607-.087,1.03-.65.943-1.256l-.281-1.974s0-.005,0-.007l-.943-6.597c-.014-.103.085-.236.189-.25.107-.018.236.087.25.188l.654,4.616c.076.531.52.934,1.057.953l5.504.208c.487.017.863.411.858.898l-.05,4.643c-.007.614.485,1.116,1.098,1.122.643-.024,1.116-.485,1.122-1.098l.05-4.643c.018-1.701-1.299-3.082-2.997-3.14Z" style="stroke-width: 0px;"/>
  <path d="M11.596,23.084h-4.86c-.612,0-1.11-.498-1.11-1.11V4.208c0-.613.498-1.11,1.11-1.11h15.545c.613,0,1.11.498,1.11,1.11v11.992c0,.614.497,1.11,1.11,1.11s1.11-.497,1.11-1.11V4.208c0-1.837-1.494-3.331-3.331-3.331H6.737c-1.837,0-3.331,1.494-3.331,3.331v17.766c0,1.837,1.494,3.331,3.331,3.331h4.86c.613,0,1.11-.497,1.11-1.11s-.497-1.11-1.11-1.11Z" style="stroke-width: 0px;"/>
</svg>