<?xml version="1.0" encoding="UTF-8"?>
<svg id="Ebene_1" data-name="Ebene 1" xmlns="http://www.w3.org/2000/svg" viewBox="0 0 32 32">
  <g id="Ellipse_6" data-name="Ellipse 6">
    <circle cx="20.44" cy="16" r="9.993" style="fill: none; stroke-width: 0px;"/>
    <path d="M20.44,25.993c-5.51,0-9.993-4.483-9.993-9.993s4.483-9.993,9.993-9.993,9.993,4.483,9.993,9.993-4.483,9.993-9.993,9.993ZM20.44,8.228c-4.286,0-7.772,3.487-7.772,7.772s3.487,7.772,7.772,7.772,7.772-3.487,7.772-7.772-3.487-7.772-7.772-7.772Z" style="stroke-width: 0px;"/>
  </g>
  <path d="M10.776,25.958c-.032,0-.065-.001-.098-.004-.415-.036-.83-.099-1.233-.185-.6-.129-.981-.719-.852-1.319.128-.601.722-.983,1.319-.852.313.067.633.116.959.144.611.053,1.063.592,1.01,1.203-.05.578-.535,1.014-1.105,1.014ZM14.07,25.629c-.479,0-.92-.311-1.064-.794-.175-.588.16-1.206.748-1.381.091-.026.181-.055.271-.086-.24-.027-.473-.133-.657-.318-.295-.295-.573-.61-.827-.938-.376-.485-.287-1.182.198-1.557.484-.376,1.181-.288,1.558.197.199.257.413.499.641.728.429.429.434,1.122.014,1.557.478-.079.97.183,1.176.651.247.561-.007,1.217-.568,1.464-.38.167-.774.312-1.173.432-.106.03-.213.046-.317.046ZM6.63,24.503c-.212,0-.426-.061-.615-.187-.345-.231-.679-.486-.993-.757-.464-.401-.514-1.103-.112-1.566.401-.464,1.102-.515,1.566-.113.244.211.502.408.771.588.51.342.647,1.03.307,1.541-.214.32-.566.493-.924.493ZM3.691,21.237c-.4,0-.786-.216-.984-.594-.193-.368-.365-.75-.51-1.139-.216-.575.075-1.214.649-1.43.574-.211,1.215.076,1.43.65.114.305.248.601.397.887.285.543.076,1.214-.467,1.5-.165.086-.341.127-.515.127ZM11.911,19.596c-.48,0-.923-.314-1.065-.799-.116-.398-.208-.808-.274-1.219-.047-.295.027-.581.185-.809-.192-.2-.31-.471-.31-.769,0-.415.026-.834.077-1.245.075-.608.625-1.053,1.238-.965.608.075,1.041.63.965,1.238-.039.319-.06.643-.06.972,0,.235-.073.454-.199.634.152.157.259.362.296.594.051.322.122.638.212.946.172.589-.166,1.205-.754,1.377-.104.03-.209.044-.312.044ZM2.677,16.96h-.018c-.613-.01-1.102-.515-1.092-1.128.007-.414.04-.833.097-1.243.086-.606.651-1.034,1.254-.944.607.086,1.031.647.945,1.255-.044.317-.07.64-.075.967-.01.607-.505,1.093-1.11,1.093ZM12.645,12.852c-.181,0-.364-.044-.534-.138-.537-.295-.734-.97-.438-1.507.201-.365.425-.72.668-1.055.358-.497,1.053-.608,1.551-.247.497.36.607,1.054.247,1.551-.19.262-.363.537-.52.821-.202.368-.582.576-.974.576ZM3.831,12.723c-.186,0-.375-.047-.548-.145-.533-.304-.719-.981-.416-1.514.204-.36.434-.711.683-1.044.367-.491,1.063-.593,1.554-.224.491.367.592,1.063.225,1.554-.194.259-.372.53-.532.812-.204.36-.58.562-.966.562ZM15.648,9.642c-.364,0-.721-.179-.933-.506-.083-.128-.136-.267-.161-.408-.29-.326-.371-.807-.169-1.223.267-.553.933-.782,1.484-.514.234.114.463.234.686.364l1.657.957-1.655.963c-.104.061-.207.123-.307.188-.187.121-.396.179-.603.179ZM6.882,9.558c-.371,0-.733-.185-.943-.524-.324-.52-.165-1.205.355-1.529.352-.22.723-.419,1.102-.593.554-.254,1.216-.012,1.472.547.256.557.011,1.217-.546,1.473-.295.136-.58.288-.853.459-.183.114-.385.168-.586.168ZM12.184,8.249c-.025,0-.051-.001-.076-.002-.321-.022-.652-.027-.974-.008-.616.042-1.136-.437-1.169-1.05-.033-.612.436-1.135,1.049-1.168.412-.023.833-.018,1.245.009.612.042,1.074.571,1.032,1.184-.04.586-.528,1.034-1.107,1.034Z" style="stroke-width: 0px;"/>
  <path d="M18.302,19.886c-.614,0-1.11-.497-1.11-1.11v-5.552c0-.614.497-1.11,1.11-1.11s1.11.497,1.11,1.11v5.552c0,.614-.497,1.11-1.11,1.11Z" style="stroke-width: 0px;"/>
  <path d="M22.579,19.886c-.614,0-1.11-.497-1.11-1.11v-5.552c0-.614.497-1.11,1.11-1.11s1.11.497,1.11,1.11v5.552c0,.614-.497,1.11-1.11,1.11Z" style="stroke-width: 0px;"/>
</svg>